<svg xmlns="http://www.w3.org/2000/svg" viewBox="0 0 150 100" version="1.1">
    <path d="M60.614 4.525l7.124 28.494-3.562 17.808-3.562 14.247L71.3 61.513l10.685-7.124L92.67 43.704 81.985 25.895zm0 0L49.93 25.895 32.12 47.265l-3.561-3.561L.065 97.13H10.75l7.123-21.37L28.56 50.827l3.561 3.562 7.124-7.123 14.247-21.37zm39.18 28.494l-3.562 14.247 3.562 14.247-14.247 10.685v10.685L74.86 97.13h24.933l7.123-10.685V79.32l3.562-3.561 3.562-7.124 3.561-7.123-7.123-10.686zm24.932 21.37v7.124l3.562 7.123-3.562 7.124 3.562 10.685-3.562 10.685h24.932l-14.247-32.056z" fill-opacity="1" stroke="none" stroke-width=".178" stroke-linecap="butt" stroke-linejoin="miter" stroke-opacity="1"/>
</svg>
