<svg xmlns="http://www.w3.org/2000/svg" viewBox="0 0 200 160" version="1.1">
    <defs>
        <filter id="a" x="-.011" width="1.022" y="-.052" height="1.104" color-interpolation-filters="sRGB">
            <feGaussianBlur stdDeviation=".968"/>
        </filter>
    </defs>
    <path d="M41.801 124.025s57.25 50.914 116.688.013" fill="none" stroke="none" stroke-width=".265" stroke-linecap="butt" stroke-linejoin="miter" stroke-opacity="1"/>
    <g fill-opacity="1" stroke="none" opacity="1">
        <g aria-label="FAIR TRADE" style="line-height:1.25;-inkscape-font-specification:Narkisim" font-style="normal" font-variant="normal" font-weight="400" font-stretch="normal" font-size="15.875" font-family="Andale Mono" letter-spacing="3.4" word-spacing="0" fill="#0d524d" stroke-width="4.5" stroke-miterlimit="4">
            <path d="M63.13 128.168l-2.898-2.166-1.71 2.287 2.64 1.973-.53.71-2.64-1.973-2.463 3.295-.814-.609 5.233-7 3.712 2.773zM68.196 140.325l-.928-.523.66-3.14-2.5-1.408-2.354 2.186-.918-.517 6.778-6.214 1.064.599zm-.087-4.578l.777-3.715-2.769 2.593zM76.239 143.873l-3.671-1.514.338-.82 1.391.575 2.658-6.443-1.392-.574.338-.819 3.67 1.515-.337.819-1.34-.553-2.658 6.442 1.34.553zM87.567 147.323l-1.228-.324-1.466-4.494-1.09-.288-1.013 3.84-.983-.26 2.232-8.451 2.39.63q1.204.319 1.743 1.09.548.765.273 1.807-.205.773-.873 1.243-.668.465-1.617.445zm-3.557-5.963l1.24.328q.778.206 1.374-.086.597-.297.767-.938.373-1.413-1.352-1.869l-1.264-.333zM107.47 140.592l-2.692.136.4 7.906-1.009.051-.4-7.906-2.703.137-.042-.823 6.403-.324zM118.267 146.544l-1.24.272-3.357-3.327-1.102.242.853 3.878-.992.218-1.877-8.537 2.414-.53q1.216-.268 2.048.171.837.431 1.069 1.484.171.78-.209 1.505-.381.718-1.235 1.134zm-5.889-3.678l1.253-.276q.786-.173 1.183-.704.396-.537.253-1.184-.314-1.428-2.056-1.045l-1.277.28zM127.975 142.981l-.99.393-2.025-2.49-2.667 1.055.216 3.206-.979.388-.561-9.179 1.134-.449zm-3.612-2.814l-2.397-2.942.272 3.784zM127.48 133.44l1.492-.86q1.487-.857 2.968-.36 1.478.493 2.495 2.259 1.04 1.803.7 3.322-.338 1.51-1.76 2.33l-1.53.882zm4.803 6.298l.622-.359q1.079-.622 1.246-1.783.167-1.162-.65-2.579-.81-1.406-1.907-1.846-1.095-.449-2.169.17l-.622.359zM144.47 132.614l-3.636 2.761-5.287-6.96 3.606-2.739.535.706-2.796 2.124 1.637 2.156 2.689-2.042.535.705-2.688 2.042 2.042 2.688 2.827-2.147z" style="-inkscape-font-specification:'Andale Mono'"/>
        </g>
        <g transform="rotate(-17.736 79.789 62.518) scale(.91873)" opacity=".501" fill="#626262" filter="url(#a)" stroke-linecap="round" stroke-linejoin="round" stroke-miterlimit="4" stroke-dashoffset="0" stroke-opacity="1">
            <rect ry="0" y="72.679" x="10.566" height="36" width="181.887" opacity="1" stroke-width="4.373"/>
            <path d="M-5.31 81.146l6.631 18-6.63 18h28v-5.292H7.39V81.146zM195.628 81.146v30.708h-15.3v5.292h28l-6.63-18 6.63-18z" opacity="1" stroke-width="17.008"/>
        </g>
        <path d="M.367 98.512l10.84 13.895-.765 17.607 24.502-7.837-1.481-4.63-13.388 4.281-8.594-26.871zM176.2 42.275l8.594 26.871-13.388 4.282 1.481 4.631 24.502-7.836-10.84-13.895.765-17.607z" opacity="1" fill="#bec0c3" stroke-width="4.5" stroke-linecap="round" stroke-linejoin="round" stroke-miterlimit="4" stroke-dashoffset="0" stroke-opacity="1"/>
        <g fill-opacity="1" transform="rotate(-17.736 -6.746 57.042) scale(.91873)" aria-label="Better Than" style="line-height:1.25;-inkscape-font-specification:Narkisim" font-style="normal" font-variant="normal" font-weight="400" font-stretch="normal" font-size="15.875" font-family="Narkisim" letter-spacing="0" word-spacing="0" fill="#000" stroke-width=".265">
            <g opacity="1" fill="#0d524d" stroke="none" stroke-linecap="round" stroke-linejoin="round" stroke-miterlimit="4" stroke-dashoffset="0" stroke-opacity="1">
                <path d="M114.806 62.075a62.576 62.576 0 0 0-78.664 40.54 62.576 62.576 0 0 0 40.54 78.663 62.576 62.576 0 0 0 78.663-40.54 62.576 62.576 0 0 0-40.54-78.663zm-1.733 5.418a56.887 56.887 0 0 1 36.854 71.513 56.887 56.887 0 0 1-23.592 30.61c1.732-4.037 2.355-8.552 1.734-12.903-.623-4.373-2.452-8.515-4.88-12.204-4.578-6.952-11.218-12.328-18.32-16.67-6.308-3.858-13.076-7.004-18.967-11.473-6.04-4.582-11.17-10.736-13.145-18.056a25.8 25.8 0 0 1 .034-13.536c1.22-4.4 3.658-8.46 6.987-11.585 3.265-3.066 7.338-5.208 11.633-6.478a34.565 34.565 0 0 1 12.723-1.276 56.887 56.887 0 0 1 8.939 2.058zm-43.827 3.902a47.342 47.342 0 0 0-5.432 7.817c-2.482 4.48-4.24 9.417-4.645 14.521-.563 7.116 1.512 14.198 4.355 20.744 3.089 7.11 7.121 13.86 9.184 21.333 1.805 6.538 2.017 13.592.03 20.077a31.072 31.072 0 0 1-8.202 13.284 56.887 56.887 0 0 1-22.976-64.824 56.887 56.887 0 0 1 27.686-32.952zm45.21 20.314a14.805 14.805 0 0 0-18.611 9.59 14.805 14.805 0 0 0 9.591 18.612 14.805 14.805 0 0 0 18.612-9.591 14.805 14.805 0 0 0-9.592-18.611z" opacity="1" stroke-width="1.202"/>
                <g stroke-width=".109">
                    <path d="M121.858 40l-.037 4.279 4.092 1.249-4.08 1.287.076 4.277-2.485-3.482-4.045 1.394 2.545-3.44-2.576-3.415 4.057 1.357zM142.107 49.542l-1.143 4.123 3.63 2.266-4.275.187-1.033 4.152-1.5-4.007-4.267.3 3.348-2.664-1.604-3.966 3.568 2.36zM159.197 64l-2.17 3.687 2.918 3.127-4.177-.925-2.073 3.742-.41-4.258-4.2-.815 3.923-1.706-.523-4.246 2.835 3.203zM171.962 82.388l-3.05 3 2.01 3.776-3.796-1.975-2.97 3.079.705-4.22-3.846-1.874 4.231-.633.594-4.237 1.91 3.829zM179.534 103.454l-3.723 2.107.964 4.168-3.155-2.89-3.666 2.205 1.773-3.893-3.23-2.806 4.251.484 1.67-3.939.854 4.192zM181.395 125.761l-4.142 1.072-.147 4.276-2.3-3.608-4.112 1.18 2.721-3.301-2.393-3.546 3.98 1.567 2.633-3.372-.26 4.27zM177.42 147.79l-4.279-.036-1.249 4.091-1.287-4.08-4.278.076 3.483-2.484-1.394-4.045 3.44 2.544 3.415-2.576-1.357 4.058zM167.878 168.04l-4.123-1.143-2.266 3.629-.187-4.274-4.152-1.034 4.007-1.498-.3-4.268 2.664 3.348 3.966-1.604-2.36 3.567zM153.42 185.13l-3.687-2.171-3.127 2.919.925-4.177-3.742-2.073 4.258-.41.815-4.2 1.706 3.922 4.246-.522-3.203 2.835zM135.032 197.895l-3-3.05-3.776 2.009 1.975-3.795-3.079-2.97 4.22.705 1.874-3.846.633 4.23 4.237.595-3.829 1.91zM113.966 205.467l-2.107-3.724-4.168.964 2.89-3.154-2.205-3.667 3.893 1.774 2.806-3.23-.484 4.25 3.939 1.671-4.192.854zM91.659 207.328l-1.072-4.142-4.276-.148 3.608-2.299-1.18-4.112 3.301 2.72 3.546-2.393-1.567 3.981 3.372 2.633-4.27-.26zM69.63 203.352l.036-4.278-4.091-1.25 4.08-1.286-.076-4.278 2.484 3.483 4.045-1.394-2.544 3.439 2.576 3.416-4.058-1.357zM49.38 193.81l1.143-4.122-3.629-2.266 4.274-.187 1.034-4.152 1.498 4.007 4.268-.3-3.348 2.664 1.604 3.966-3.567-2.36zM32.29 179.353l2.171-3.687-2.919-3.128 4.177.926 2.073-3.743.41 4.259 4.2.814-3.923 1.707.523 4.246-2.835-3.204zM19.525 160.965l3.05-3-2.01-3.776 3.796 1.975 2.97-3.079-.705 4.22 3.846 1.874-4.23.633-.595 4.237-1.91-3.829zM11.953 139.899l3.724-2.107-.964-4.168 3.154 2.89 3.667-2.205-1.774 3.893 3.23 2.805-4.25-.483-1.671 3.938-.854-4.192zM10.092 117.591l4.142-1.071.148-4.276 2.299 3.608 4.112-1.18-2.721 3.3 2.394 3.547-3.981-1.568-2.633 3.373.26-4.27zM14.068 95.562l4.278.037 1.25-4.092 1.286 4.08 4.278-.076-3.483 2.485 1.394 4.045-3.439-2.545-3.416 2.576 1.357-4.057zM23.61 75.313l4.122 1.143 2.266-3.63.187 4.275 4.152 1.033-4.007 1.5.3 4.267-2.664-3.348L24 82.157l2.36-3.568zM38.067 58.223l3.687 2.17 3.128-2.918-.926 4.177 3.743 2.073-4.259.41-.814 4.2-1.707-3.923-4.246.523 3.204-2.835zM56.455 45.457l3 3.051 3.776-2.01-1.975 3.796 3.079 2.97-4.22-.705-1.874 3.846-.633-4.231-4.237-.594 3.829-1.91zM77.521 37.886l2.107 3.723 4.168-.964-2.89 3.155 2.205 3.666-3.893-1.773-2.805 3.23.483-4.251-3.938-1.67 4.192-.854zM99.829 36.025l1.071 4.142 4.276.147-3.608 2.3 1.18 4.112-3.3-2.721-3.547 2.393 1.568-3.98-3.373-2.633 4.27.26z" opacity="1"/>
                </g>
            </g>
            <rect width="181.887" height="36" x="2.157" y="98.972" ry="0" opacity="1" fill="#bebfc3" stroke="none" stroke-width="4.373" stroke-linecap="round" stroke-linejoin="round" stroke-miterlimit="4" stroke-dashoffset="0" stroke-opacity="1"/>
            <g font-style="normal" font-variant="normal" font-weight="700" font-stretch="normal" font-size="32.255" font-family="Brush Script MT" letter-spacing="1.688" word-spacing="2.88" writing-mode="lr-tb" text-anchor="start" fill="#0d524d">
                <path d="M34.226 115.759l-.897.856q1.38.271 2.454.606 1.075.319 1.971.682.914.35 1.589.706 2.366 1.294 2.172 3.142-.119 1.127-1.266 2.1-1.148.972-2.897 1.643-1.733.673-3.537.958-1.79.303-3.215.153-2.38-.25-3.62-1.267-1.237-1.033-1.076-2.568.112-1.065 1.078-2.42.966-1.355 2.899-3.322-1.278-.197-1.778-.567-.498-.385-.437-.964.038-.36.261-.527.224-.166.576-.209.355-.057 1.34-.08 1-.022 2.554-.049 1.928-1.92 3.385-2.827 1.475-.922 3.042-.916.127-.002.268.013.156.016.148.095-.01.094-.413.463-.387.37-1.28 1.18-.877.81-2.086 1.918 2.986-.082 4.902-.387 1.934-.32 2.964-.924 1.03-.604 1.12-1.466.11-1.05-.858-1.626-.97-.577-3.068-.798-1.16-.121-2.687-.044-1.513.078-2.766.247-1.237.171-2.23.415-.973.23-.99.387-.005.047.084.104.738.363.718.55-.026.251-2.451.725-2.424.458-3.238.372-.58-.06-.519-.64.072-.69 1.513-2.344 1.458-1.667 2.545-2.06.378-.134 1.733-.372t2.958-.418q1.618-.178 3.272-.242 1.654-.063 2.907.068 2.96.311 4.336 1.533 1.378 1.206 1.21 2.803-.114 1.081-.908 2.011-.78.932-2.314 1.673-1.535.741-3.924 1.171-2.373.432-5.544.463zm-1.872 1.846q-.917.885-1.638 1.57-.704.67-1.035 1.11-.314.426-.364.896-.079.752.626 1.428.722.662 2.18.815 1.346.142 2.915-.169 1.586-.324 2.7-.983 1.13-.657 1.213-1.44.07-.674-.65-1.193-.722-.519-2.254-1.013-1.53-.509-3.693-1.021z" style="-inkscape-font-specification:'Brush Script MT Bold';font-variant-ligatures:normal;font-variant-caps:normal;font-variant-numeric:normal;font-feature-settings:normal;text-align:start" stroke-width=".265"/>
                <path style="-inkscape-font-specification:'Brush Script MT Bold';font-variant-ligatures:normal;font-variant-caps:normal;font-variant-numeric:normal;font-feature-settings:normal;text-align:start" d="M90.686 114.098a.46.46 0 0 0-.135-.033.948.948 0 0 0-.435.065c-.39.106-.843.387-1.355.84-.512.452-.955.95-1.328 1.49-.374.542-.58 1-.62 1.376-.036.335.012.593.14.776.14.183.37.35.692.5-.342.439-1.226 1.294-1.829 1.806-.853.586-2.802 1.628-3.387 1.968-.584.34-1.166.6-1.745.782-.568.183-1.108.248-1.62.194-.49-.051-.869-.265-1.135-.642-.267-.376-.368-.872-.303-1.489l.041-.39c1.535-.441 2.837-.928 3.906-1.46 1.081-.54 1.9-1.108 2.46-1.704.56-.606.874-1.239.943-1.896.048-.45-.063-.799-.333-1.049-.258-.26-.632-.415-1.123-.466-.616-.065-1.333.034-2.152.296-.82.262-1.662.69-2.527 1.286-1.263.87-2.198 1.728-2.804 2.572-.553.763-.9 1.636-1.043 2.619-1.832.635-3.853 1.263-4.261 1.475-.681.35-1.22.505-1.617.463-.574-.06-.823-.45-.748-1.17a5.384 5.384 0 0 1 .476-1.661c.271-.573.632-1.195 1.083-1.866a45.58 45.58 0 0 1 1.682-2.294c.29.052.533.099.73.14.207.033.41.07.605.112.198.03.442.073.732.124a24.785 24.785 0 0 0 2.597-3.164 31.757 31.757 0 0 0-.65-.147l-.928-.209c.269-.351.657-.78 1.165-1.286.507-.507.767-.823.78-.948.027-.261-.246-.422-.82-.482-.575-.06-1.108.095-1.601.465-.492.36-1.067 1.007-1.725 1.941l-.673-.07c-.804-.085-1.436-.099-1.896-.042a2.42 2.42 0 0 0-1.187.445c-.332.25-.702.65-1.108 1.199-.5.644-.769 1.138-.805 1.483-.006.062.011.095.053.1a.919.919 0 0 0 .224-.024c.12-.03.243-.053.372-.072.311-.051.775-.044 1.391.02.188.02.35.042.484.067.136.014.282.035.437.062-1.798 2.144-3.294 3.618-4.487 4.422-1.168.764-3.625 2.032-4.317 2.392-.681.35-1.22.505-1.617.463-.574-.06-.824-.45-.748-1.17a5.384 5.384 0 0 1 .476-1.661c.271-.573.632-1.195 1.082-1.866a45.536 45.536 0 0 1 1.682-2.294c.29.052.534.099.73.14.208.033.41.07.606.112.198.03.44.072.731.124 1.02-1.065 1.886-2.12 2.598-3.164a32.542 32.542 0 0 0-.65-.147l-.929-.209c.27-.351.658-.78 1.165-1.287.507-.506.768-.822.78-.947.028-.261-.245-.422-.82-.482-.574-.06-1.108.095-1.6.465-.492.36-1.067 1.007-1.725 1.941l-.673-.07c-.805-.085-1.437-.099-1.897-.041a2.417 2.417 0 0 0-1.186.445c-.333.25-.702.65-1.108 1.198-.5.644-.77 1.138-.806 1.483-.006.062.012.095.053.1a.92.92 0 0 0 .225-.024c.119-.03.243-.053.372-.072.311-.051.775-.044 1.391.02.188.02.35.042.484.067.136.014.281.035.437.062-1.799 2.144-3.294 3.618-4.487 4.422-.854.586-3.173 1.924-3.758 2.264a8.64 8.64 0 0 1-1.746.782c-.568.183-1.108.248-1.62.194-.49-.051-.869-.265-1.135-.642-.267-.376-.368-.872-.303-1.489l.041-.39c1.535-.441 2.837-.928 3.907-1.46 1.08-.54 1.9-1.108 2.459-1.704.56-.606.874-1.238.943-1.896.048-.45-.063-.799-.333-1.049-.257-.26-.632-.415-1.123-.466-.616-.065-1.333.034-2.152.296-.82.262-1.662.69-2.527 1.286-1.263.87-2.198 1.728-2.804 2.572-.605.834-.965 1.798-1.08 2.895-.132 1.253.036 2.269.503 3.046.467.778 1.166 1.215 2.095 1.313 1.065.112 2.154-.154 3.267-.797 1.114-.653 3.923-2.379 5.252-3.675.138-.102.274-.198.41-.29l.378-.276.395-.291c.149-.111.303-.222.462-.332-.53 1.032-.907 1.805-1.13 2.32-.213.517-.34.968-.38 1.354-.06.574.031 1.059.275 1.454.254.396.615.619 1.085.668 1.347.142 5.115-1.844 8.256-4.607.138-.102.275-.198.411-.289a120.398 120.398 0 0 0 .772-.569c.15-.11.303-.22.462-.33-.53 1.031-.907 1.804-1.13 2.32-.213.516-.34.966-.38 1.353-.06.574.031 1.059.275 1.454.254.396.616.62 1.085.668 1.025.108 5.026-1.226 8.267-3.086.066.63.235 1.177.513 1.638.467.778 1.166 1.215 2.095 1.313 1.065.112 2.154-.154 3.267-.797 1.113-.653 4.714-2.967 6.044-4.263h-.005c.977-.786 1.78-1.664 2.403-2.64a154.37 154.37 0 0 1 2.138-.155c.373-.034.71-.068 1.008-.1-.624.61-1.195 1.231-1.716 1.863-.509.622-.908 1.208-1.198 1.758-.29.55-.459 1.05-.506 1.5-.08.761.005 1.361.254 1.8.251.427.595.664 1.034.71.376.04.82-.067 1.332-.32.513-.262 1.08-.625 1.698-1.088a51.535 51.535 0 0 0 2.371-1.92l.111-1.05c-1.713 1.13-2.888 1.66-3.525 1.594-.606-.064-.883-.341-.831-.832.037-.355.28-.863.73-1.523.45-.66.983-1.259 1.599-1.796.521-.441.888-.777 1.103-1.008.226-.24.35-.47.373-.69a3.27 3.27 0 0 0-.063-1.051c-.079-.357-.202-.591-.37-.704-.079-.05-.228-.087-.448-.11-.563-.06-1.938-.035-4.124.073.38-.509.58-.852.599-1.03.015-.148-.033-.248-.147-.297zm-8.113 2.333c.118.058.168.177.149.357-.024.23-.224.578-.6 1.045-.366.458-.91.924-1.636 1.396-.725.473-1.577.843-2.555 1.11.169-.606.453-1.151.853-1.637.4-.486.833-.9 1.302-1.241.48-.34.94-.609 1.383-.805.453-.195.774-.283.962-.263a.421.421 0 0 1 .142.038zm-30.64 0c.118.058.168.177.149.357-.024.23-.224.578-.6 1.045-.366.458-.91.924-1.636 1.396-.725.473-1.577.843-2.555 1.11.17-.606.453-1.151.853-1.637.4-.486.833-.9 1.302-1.241.48-.34.94-.609 1.383-.805.453-.195.774-.283.962-.263a.421.421 0 0 1 .142.038z" stroke-width=".919"/>
                <path d="M121.473 123.648l.476.446q-.25.417-.473.726l-.538.752q-.315.441-.481.662-1.39 1.928-2.424 1.82-.439-.047-.716-.424-.277-.378-.214-.973.089-.846.839-2.256.765-1.408 2.244-3.422 1.496-2.028 3.693-4.553 2.197-2.524 4.912-5.295-1.357-.349-3.253-.548-2.177-.229-4.906-.025-2.714.206-4.77.64-2.04.418-2.071.716-.012.11.061.165.075.04.245.089.186.035.464.096 1.807.443 1.774.757-.017.156-.815.072-.798-.1-1.925-.218-.893-.094-1.294-.2-.383-.119-.504-.321-.104-.217-.062-.624.028-.267.279-1.143.472-1.629 1.188-2.567.732-.937 2.067-1.43 1.352-.507 3.63-.648 3.828-.247 6.287.012 1.817.19 2.85.458 1.034.25 1.49.584.472.334.567.63.113.28.262.977l.334 1.492.054.243q.023.082.028.178.022.097.014.175-.065.611-.398 1.067-.317.458-1.155 1.351-.823.896-1.225 1.408-4.73 6.138-6.534 9.131z" style="-inkscape-font-specification:'Brush Script MT Bold';font-variant-ligatures:normal;font-variant-caps:normal;font-variant-numeric:normal;font-feature-settings:normal;text-align:start" stroke-width=".265"/>
                <path style="-inkscape-font-specification:'Brush Script MT Bold';font-variant-ligatures:normal;font-variant-caps:normal;font-variant-numeric:normal;font-feature-settings:normal;text-align:start" d="M142.323 106.041a3.171 3.171 0 0 0-.485-.13c-.29-.051-.91.327-1.86 1.135-.95.797-2.17 2-3.658 3.606-1.477 1.597-3.273 3.668-5.388 6.212-1.004 1.214-1.647 2.207-1.929 2.98-.281.773-.457 1.488-.526 2.146-.21 2.005.091 3.05.906 3.136.198.02.42-.078.664-.295.244-.217.722-.69 1.432-1.417a46.91 46.91 0 0 1 2.205-2.144c.247-.238.551-.522.913-.854a8.363 8.363 0 0 1 1.224-.948c.454-.3.93-.557 1.427-.768-1.095 1.278-1.952 2.402-2.571 3.371-.608.96-.953 1.827-1.034 2.6-.101.96.256 1.484 1.07 1.57.345.036.778-.072 1.301-.323.533-.25 1.16-.634 1.879-1.15.73-.524 3.182-1.872 4.188-2.706l.009-.144c.007.467.073.932.207 1.392.206.655.46 1.199.763 1.632.303.433.57.662.799.686.48.05 1.129-.24 1.945-.873.817-.643 2.077-1.73 3.779-3.26-.76 1.503-1.183 2.667-1.27 3.492-.055.522-.012.923.127 1.201.15.29.428.457.835.5 1.124.118 4.646-1.585 7.574-4.185.016.503.085.972.208 1.405.209.73.48 1.112.814 1.147.22.023.444-.06.675-.246.243-.197.626-.578 1.15-1.146a55.941 55.941 0 0 1 1.493-1.553 16.951 16.951 0 0 1 1.658-1.457c.992-.804 1.802-1.326 2.43-1.566-.578.773-1.09 1.47-1.535 2.088-.443.608-.778 1.079-1.003 1.414-.214.326-.39.645-.529.958a3.213 3.213 0 0 0-.26.97c-.119 1.128.25 1.737 1.106 1.827.502.053 1.184-.203 2.045-.767.862-.564 2.11-1.499 3.747-2.805l.114-1.08c-1.12.705-1.942 1.194-2.467 1.466-.513.263-.92.379-1.224.347-.365-.038-.524-.283-.477-.732.084-.804 1.153-2.132 3.206-3.986.498-.422.76-.749.784-.978.05-.47.014-.944-.104-1.42-.109-.477-.246-.724-.413-.741-.366-.039-.846.107-1.44.435a22.441 22.441 0 0 0-2.878 1.772 26.507 26.507 0 0 0-2.236 1.839c-.632.588-1.153 1.067-1.56 1.436-.398.359-.658.532-.784.52-.198-.022-.281-.184-.25-.486.058-.543 1.007-1.642 2.849-3.296.279-.245.46-.41.543-.497a1.69 1.69 0 0 0 .252-.29.694.694 0 0 0 .13-.32.571.571 0 0 0-.258-.565c-.187-.135-.447-.22-.781-.256-.48-.05-1.009.158-1.586.625-.576.457-1.282 1.2-2.12 2.232-.448.554-.929 1.24-1.341 1.594-1.7 1.204-4.214 3.304-4.945 3.227-.71-.075-1.025-.498-.944-1.27.05-.47.19-.857.423-1.16.243-.302.65-.766 1.223-1.392.584-.635.89-1.078.916-1.328a1.16 1.16 0 0 0-.05-.433 13.102 13.102 0 0 0-.198-.67l-.215-.672c.379-.087.645-.165.8-.233a.472.472 0 0 0 .264-.4c.012-.115-.026-.298-.116-.55a1.897 1.897 0 0 0-.373-.673c-.168-.208-.362-.323-.581-.346-.815-.086-2.005.143-3.572.685-1.567.543-3.22 1.451-4.958 2.725-.654.502-1.136.91-1.443 1.227-.308.316-.526.636-.655.96a4.238 4.238 0 0 0-.248 1.037c-1.864 1.166-4.58 2.341-5.082 2.289-.47-.05-.679-.32-.627-.81.035-.335.197-.718.485-1.153.29-.444.685-.936 1.185-1.474a59.14 59.14 0 0 1 2.036-2.051c.121-.146.187-.27.198-.375.025-.24-.08-.558-.312-.952-.232-.404-.505-.623-.818-.656-.334-.035-.883.166-1.647.603-.762.427-1.708 1.082-2.836 1.967-1.127.884-2.472 2.03-4.035 3.44l.198-1.88a72.966 72.966 0 0 0 2.492-2.32c.742-.724 1.557-1.546 2.445-2.466.9-.93 1.577-1.645 2.03-2.146.456-.512 1.229-1.391 2.32-2.638 1.012-1.182 1.727-2.052 2.144-2.61.43-.567.658-.981.685-1.242.015-.146-.086-.29-.304-.429a1.742 1.742 0 0 0-.369-.18zm9.842 10.926c-1.462 1.652-2.702 2.952-3.72 3.9-1.017.939-2.108 1.674-3.272 2.206-.308.116-.52.168-.634.155-.198-.02-.344-.141-.437-.362-.092-.231-.12-.514-.085-.848.096-.919.765-1.752 2.004-2.498 1.25-.745 3.298-1.595 6.144-2.553zm4.721 4.448l.005.006c0 .011 0 .021-.002.033l-.003-.04z" stroke-width=".919"/>
            </g>
        </g>
    </g>
</svg>
