<svg xmlns="http://www.w3.org/2000/svg" viewBox="0 0 72 54" version="1.1" class="close">
    <g fill-opacity="1" stroke="none" stroke-width="4.5" stroke-linecap="round" stroke-linejoin="round" stroke-miterlimit="4" stroke-dashoffset="0" stroke-opacity="1" opacity="1">
        <path d="M54 54a18 18 0 0 0 18-18V6.308A6.294 6.294 0 0 0 65.691 0H48.308A6.294 6.294 0 0 0 42 6.308v17.384A6.294 6.294 0 0 0 48.308 30H60v6h-.005a12 12 0 0 1 .005.186 12 12 0 0 1-6 10.375zM12 54a18 18 0 0 0 18-18V6.308A6.294 6.294 0 0 0 23.692 0H6.308A6.294 6.294 0 0 0 0 6.308v17.384A6.294 6.294 0 0 0 6.308 30H18v6h-.005a12 12 0 0 1 .005.186 12 12 0 0 1-6 10.375z" opacity="1"/>
    </g>
</svg>
