<svg xmlns="http://www.w3.org/2000/svg" version="1.1" viewBox="0 0 100 100">
    <g fill-opacity="1" stroke="none">
        <path d="M47.2 0a50.099 50.1 0 0 0-7.433 1.015A2.896 2.896 0 0 1 37.62 3.8a2.896 2.896 0 0 1-3.246-1.335 50.099 50.1 0 0 0-6.952 2.82 2.896 2.896 0 0 1-1.337 3.293 2.896 2.896 0 0 1-3.51-.48 50.099 50.1 0 0 0-5.928 4.6 2.896 2.896 0 0 1-.468 3.48 2.896 2.896 0 0 1-3.487.462 50.099 50.1 0 0 0-4.578 5.947 2.896 2.896 0 0 1 .464 3.497 2.896 2.896 0 0 1-3.246 1.35 50.099 50.1 0 0 0-2.89 6.926 2.896 2.896 0 0 1 1.358 3.26 2.896 2.896 0 0 1-2.829 2.143 50.099 50.1 0 0 0-.931 7.444A2.896 2.896 0 0 1 2.17 50 2.896 2.896 0 0 1 0 52.8a50.099 50.1 0 0 0 1.017 7.437 2.896 2.896 0 0 1 .097 0 2.896 2.896 0 0 1 2.687 2.144 2.896 2.896 0 0 1-1.335 3.245 50.099 50.1 0 0 0 2.82 6.954 2.896 2.896 0 0 1 .717-.111 2.896 2.896 0 0 1 2.576 1.447 2.896 2.896 0 0 1-.48 3.511 50.099 50.1 0 0 0 4.601 5.93 2.896 2.896 0 0 1 1.475-.383 2.896 2.896 0 0 1 2.005.848 2.896 2.896 0 0 1 .46 3.487 50.099 50.1 0 0 0 5.95 4.58 2.896 2.896 0 0 1 1.911-.851 2.896 2.896 0 0 1 1.585.385 2.896 2.896 0 0 1 1.348 3.247 50.099 50.1 0 0 0 6.928 2.889 2.896 2.896 0 0 1 2.484-1.457 2.896 2.896 0 0 1 .775.099 2.896 2.896 0 0 1 2.143 2.829 50.099 50.1 0 0 0 7.444.931A2.896 2.896 0 0 1 50 97.83a2.896 2.896 0 0 1 2.8 2.17 50.099 50.1 0 0 0 7.433-1.015A2.896 2.896 0 0 1 62.38 96.2a2.896 2.896 0 0 1 .86-.097 2.896 2.896 0 0 1 2.385 1.431 50.099 50.1 0 0 0 6.954-2.82 2.896 2.896 0 0 1 1.337-3.293 2.896 2.896 0 0 1 1.38-.387 2.896 2.896 0 0 1 2.13.867 50.099 50.1 0 0 0 5.928-4.6 2.896 2.896 0 0 1 .467-3.481 2.896 2.896 0 0 1 2.09-.848 2.896 2.896 0 0 1 1.398.386 50.099 50.1 0 0 0 4.578-5.946 2.896 2.896 0 0 1-.465-3.498 2.896 2.896 0 0 1 2.371-1.444 2.896 2.896 0 0 1 .876.096 50.099 50.1 0 0 0 2.889-6.928 2.896 2.896 0 0 1-1.357-3.26 2.896 2.896 0 0 1 2.77-2.146 2.896 2.896 0 0 1 .058 0 50.099 50.1 0 0 0 .931-7.441 2.896 2.896 0 0 1-2.13-2.793A2.896 2.896 0 0 1 100 47.2a50.099 50.1 0 0 0-1.016-7.433A2.896 2.896 0 0 1 96.2 37.62a2.896 2.896 0 0 1 1.334-3.245 50.099 50.1 0 0 0-2.82-6.953 2.896 2.896 0 0 1-3.293-1.338 2.896 2.896 0 0 1 .48-3.51 50.099 50.1 0 0 0-4.6-5.927 2.896 2.896 0 0 1-3.48-.469 2.896 2.896 0 0 1-.463-3.486 50.099 50.1 0 0 0-5.946-4.577 2.896 2.896 0 0 1-3.498.463 2.896 2.896 0 0 1-1.349-3.246 50.099 50.1 0 0 0-6.926-2.89 2.896 2.896 0 0 1-3.26 1.357A2.896 2.896 0 0 1 60.236.972a50.099 50.1 0 0 0-7.444-.931A2.896 2.896 0 0 1 50 2.17 2.896 2.896 0 0 1 47.2 0zM50 7.939A42.06 42.06 0 0 1 92.06 50 42.06 42.06 0 0 1 50 92.06 42.06 42.06 0 0 1 7.94 50 42.06 42.06 0 0 1 50 7.939z" opacity="1" stroke-width="19.533" stroke-linecap="round" stroke-linejoin="round" stroke-miterlimit="4" stroke-dashoffset="0"/>
        <path d="M46.745 9.656L50 19.422l3.255-9.766zM53.255 90.344L50 80.578l-3.255 9.766zM9.656 53.255L19.422 50l-9.766-3.256zM90.344 46.745L80.578 50l9.766 3.255z" stroke-width=".326" stroke-linecap="butt" stroke-linejoin="miter" stroke-opacity="1"/>
        <path d="M59.646 14.002L43.232 48.187l-2.877 37.811 16.413-34.185zm-2.354 8.786L50 50l-5.117-1.37 12.408-25.84zM50 50l5.116 1.37-12.407 25.84z" opacity="1" stroke-width="11.51" stroke-linecap="round" stroke-linejoin="round" stroke-miterlimit="4" stroke-dashoffset="0"/>
    </g>
</svg>
