<svg xmlns="http://www.w3.org/2000/svg" viewBox="0 0 100 100" version="1.1">
    <g opacity="1">
        <path d="M48.223 54.098s-.498.107-.425.61c0 0 .09-.202.686-.206 0 0 .255.366.911.034 0 0 .187-.13.837-.292 0 0 .616-.284.241-.934 0 0-.304-.549-1.005-.195 0 0-.317-.444-.99.168 0 0-.622.455-.255.815zm2.02.52l2.211-.116-.053-1.03zm2.33.574l-5.604.294 1.402 6.971 3.536-.185zm-3.838 8.54l3.39-.177.743 2.81-4.586.24zm-9.64-1.12l4.007-.21c.474.78 1.071 1.391 1.071 1.391l-4.385.23zm-2.55-.178l6.315-.33c-.59-.93-.723-1.387-.723-1.387l-6.207.325zm-3.01-3.52l.279 1.573c1.327.26 1.751.204 1.751.204l6.41-.335c-.26-.775-.413-1.391-.413-1.391l-5.852.306s-.995.03-2.176-.356zm10.898 4.215l3.636-.19-1.045-5.113-5.263.276s.537 2.927 2.672 5.027zm-11.497-6.715l.29 1.607c.722.341 1.79.337 1.79.337l12.042-.63-.282-1.414-11.587.607s-.92.039-2.253-.507zm28.794 4.935l-4.007.21a8.746 8.746 0 0 1-.92 1.496l4.385-.23zm2.575-.451l-6.315.33c.49-.985.574-1.454.574-1.454l6.207-.325zm2.672-3.818l-.114 1.594c-1.293.396-1.72.385-1.72.385l-6.41.336c.178-.798.265-1.426.265-1.426l5.852-.307s.993-.073 2.127-.582zM56.103 62.44l-3.636.19.505-5.194 5.263-.275s-.228 2.968-2.132 5.279zm10.924-7.919l-.12 1.629c-.682.415-1.745.522-1.745.522l-12.042.63.133-1.435 11.587-.607s.919-.057 2.187-.739zM49.985-.044A50 50 0 0 0-.018 49.954 50 50 0 0 0 49.98 99.956 50 50 0 0 0 99.982 49.96 50 50 0 0 0 49.985-.044zm-3.812 8.867c1.375-.01 2.804.155 4.169.61 0 0 3.034 0 5.36 1.315 0 0 3.842.101 5.561 2.427 0 0 2.63 1.315 2.023 2.427 0 0-3.945 7.484-5.057 10.113 0 0 4.45-2.427 8.192-5.663 0 0 1.921-.303 1.314 1.416 0 0-5.865 3.944-8.292 6.674 0 0 2.224.91 3.943 3.237 0 0 9.203 1.416 6.574 5.057-.607 1.112-2.125.606-2.125.606.708 1.618 1.011 3.54 1.011 3.54 2.022 23.867.302 42.98.302 42.98s-2.63 8.09-14.36 6.067c0 0-3.237-.405-15.777-.406 0 0-6.675-1.213-6.876-9.91 0 0-1.617-29.733-2.223-31.553 0 0-1.416-6.27 5.36-12.135 0 0 1.213-.81 1.517-1.618 0 0-6.775-1.214-3.64-7.383 0 0 0-1.315 4.247-3.034 0 0-4.348-6.776-5.561-10.821 0 0-1.214-.708 5.663-3.236l.91.91s3.64-1.592 7.765-1.62zM38.9 25.324s-5.813.14-4.72 5.22c0 0 .643 2.932 5.077 1.145 0 0 1.001-.716 2.86-1.073 0 0-.571-2.145.072-2.86 0 0-1.787-.698-3.29-2.432zm19.808 4.077c-.736 1.26-1.717 1.573-1.717 1.573 1.323.733 4.327.197 4.327.197-1.234-1.18-2.61-1.77-2.61-1.77z" stroke="none" stroke-width=".265" stroke-linecap="butt" stroke-linejoin="miter" stroke-opacity="1"/>
    </g>
</svg>
