<svg xmlns="http://www.w3.org/2000/svg" viewBox="0 0 100 100" version="1.1">
    <path d="M50 0A50 50 0 0 0 0 50a50 50 0 0 0 50 50 50 50 0 0 0 50-50A50 50 0 0 0 50 0zM37.706 10.796a4.306 4.306 0 0 1 2.206.53c.77.416 1.415 1.042 1.908 1.764.985 1.445 1.35 3.224 1.503 4.967.147 1.654.114 3.373-.527 4.905-.32.767-.793 1.475-1.417 2.024-.623.549-1.4.933-2.224 1.04-.867.112-1.763-.087-2.532-.502-.77-.416-1.415-1.042-1.908-1.765-.985-1.445-1.35-3.225-1.504-4.967-.146-1.655-.114-3.373.528-4.905.32-.766.793-1.475 1.416-2.024.624-.548 1.4-.933 2.225-1.04.108-.013.217-.022.326-.027zm11.145 3.342c.452.01.902.127 1.308.328a3.936 3.936 0 0 1 1.37 1.16c.73.963 1.054 2.173 1.226 3.369.171 1.195.2 2.448-.229 3.577a3.936 3.936 0 0 1-.99 1.499 3.032 3.032 0 0 1-1.603.784 3.03 3.03 0 0 1-1.758-.302 3.934 3.934 0 0 1-1.37-1.16c-.73-.963-1.055-2.173-1.226-3.368-.172-1.196-.2-2.45.23-3.578.214-.564.544-1.09.988-1.499a3.032 3.032 0 0 1 1.603-.784c.15-.021.3-.03.45-.026zm8.65 3.029c.5 0 .993.168 1.407.447.413.279.75.666.997 1.1.494.866.63 1.894.63 2.892s-.136 2.025-.63 2.892c-.247.434-.584.82-.997 1.1a2.543 2.543 0 0 1-1.407.446c-.499 0-.991-.168-1.405-.447a3.273 3.273 0 0 1-.998-1.099c-.494-.867-.63-1.894-.63-2.892s.136-2.026.63-2.893c.248-.433.584-.82.998-1.1a2.541 2.541 0 0 1 1.405-.446zm5.975 4.138c.1.002.202.013.302.032.391.076.753.283 1.035.564.283.281.488.636.618 1.013.259.754.214 1.58.072 2.365-.144.798-.397 1.601-.917 2.223a2.63 2.63 0 0 1-.957.733 2.037 2.037 0 0 1-1.19.145 2.034 2.034 0 0 1-1.034-.564 2.63 2.63 0 0 1-.618-1.012c-.259-.755-.215-1.58-.073-2.366.144-.798.397-1.601.917-2.223a2.63 2.63 0 0 1 .957-.734 2.1 2.1 0 0 1 .888-.176zm3.864 5.006c.166-.002.332.021.492.07.318.099.6.302.81.56.211.26.351.571.426.896.148.65.037 1.334-.16 1.97-.197.637-.49 1.265-.98 1.717a2.193 2.193 0 0 1-.857.5c-.32.094-.667.103-.985.005a1.713 1.713 0 0 1-.81-.561c-.211-.259-.352-.57-.426-.896-.149-.65-.037-1.333.16-1.97.196-.637.49-1.264.98-1.716.245-.227.536-.405.856-.5.16-.047.327-.073.494-.075zm-21.254 2.614c.548-.007 1.097.014 1.642.061 2.178.188 4.304.76 6.395 1.398 2.566.783 5.116 1.677 7.448 3.001 2.333 1.324 4.453 3.105 5.868 5.384 1.717 2.765 2.303 6.118 2.17 9.37-.144 3.533-1.092 7-2.466 10.258-1.063 2.521-2.378 4.926-3.55 7.398-1.34 2.822-2.504 5.775-2.86 8.877-.23 1.998-.12 4.025-.396 6.017-.406 2.94-1.73 5.836-4.044 7.694-1.478 1.187-3.315 1.91-5.202 2.1-1.886.19-3.816-.147-5.55-.916-2.522-1.12-4.629-3.186-5.72-5.721-.788-1.832-1.046-3.876-.815-5.856.232-1.98.945-3.894 1.999-5.586 1.762-2.829 4.432-5.015 6.115-7.891 1.4-2.392 2.054-5.279 1.48-7.99-.343-1.615-1.104-3.12-2.07-4.459-.966-1.338-2.135-2.518-3.355-3.63-1.827-1.662-3.804-3.208-5.228-5.227-.743-1.052-1.324-2.225-1.65-3.471-.325-1.247-.39-2.568-.126-3.828.282-1.34.933-2.593 1.833-3.625.9-1.031 2.043-1.841 3.296-2.392 1.501-.66 3.141-.944 4.786-.966z" opacity="1" fill-opacity="1" stroke="none" stroke-width="18.594" stroke-linecap="round" stroke-linejoin="round" stroke-miterlimit="4" stroke-dashoffset="0" stroke-opacity="1" display="inline"/>
</svg>
