<svg xmlns="http://www.w3.org/2000/svg" viewBox="0 0 90 90" version="1.1">
    <path d="M40.472.276A45 45 0 0 0 0 45a45 45 0 0 0 27.035 41.2c.72-1.655.814-3.763.814-3.763s-2.09-4.618-.305-15.657c0 0 .09-6.86.147-13.087 0 0 .296-3.946 3.302-1.497 0 0 2.414 2.184 1.37 7.198 0 0 .238 2.28.07 5.049 0 0 .329.857.31 1.414 0 0 2.865.305 4.137-2.83 0 0 .342-1.258 1.804-3.2 0 0 .305-.825.795-2.697 0 0 .811-2.336 1.474-4.058 0 0 .606-2.472 1.98-4.828 0 0 .283-.47.623-1.55 0 0 1.71-3.577 3.174-4.398 0 0 2.544-.308 1.956 2.387 0 0-.017 1.382-1.766 3.93 0 0-.866 1.543-.896 2.838 0 0-.341 2.738-.981 3.643 0 0-.742 3.403-1.327 4.799 0 0-.446.769.314 1.75 0 0 .484.143 1.344-2.335 0 0 1.36-3.548 1.956-4.037 0 0 1.795-4.344 3.17-5.407 0 0 1.882-3.37 2.547-4.101 0 0 1.523-2.7 3.66-1.193 0 0 1.124 1.64-.983 4.294 0 0-.687 1.01-2.023 3.94 0 0-1.183 3.184-2.31 4.766 0 0-1.538 4.874-2.87 6.816 0 0-.013.563.283.644 0 0 .623-.005 1.165-1.153.024-.137 1.594-2.63 3.027-3.706 0 0 1.326-2.226 2.567-3.336 0 0 .434-1.215 1.204-2.274 0 0 1.169-3.329 2.72-3.79 0 0 1.675-.525 2.037 1.913 0 0 .013 1.048-1.194 2.927 0 0-.879 1.938-1.706 2.781 0 0-2.077 4.892-3.324 6.03 0 0-2.178 3.376-3.908 5.813 0 0 .738 2.391 2.21.615 0 0 4.524-2.736 5.38-3.575 0 0 1.715-1.394 2.063-1.926 0 0 2.012-2.274 3.104-2.534 0 0 2.713-.314.585 3.58 0 0-.657 1.156-3.336 3.37 0 0-2.445 2.48-7.603 6.886 0 0-4.702 7.596-10.336 11.974 0 0-.477.636-1.57 1.265A45 45 0 0 0 45 90a45 45 0 0 0 45-45A45 45 0 0 0 58.14 1.97c-.733 1.675-.834 3.809-.834 3.809s2.107 4.692.262 15.889c0 0-.112 6.96-.19 13.279 0 0-.312 4.002-3.355 1.508 0 0-2.443-2.223-1.369-7.307 0 0-.234-2.315-.055-5.124 0 0-.33-.871-.31-1.436 0 0-2.907-.318-4.207 2.858 0 0-.35 1.277-1.84 3.242 0 0-.312.837-.815 2.736 0 0-.83 2.367-1.508 4.113 0 0-.622 2.506-2.024 4.893 0 0-.289.476-.637 1.57 0 0-1.746 3.624-3.234 4.453 0 0-2.583.305-1.978-2.428 0 0 .022-1.402 1.805-3.981 0 0 .883-1.564.918-2.878 0 0 .354-2.778 1.006-3.694 0 0 .763-3.451 1.36-4.865 0 0 .456-.78-.312-1.778 0 0-.49-.145-1.371 2.366 0 0-1.391 3.596-1.997 4.09 0 0-1.835 4.403-3.234 5.478 0 0-1.919 3.414-2.597 4.153 0 0-1.552 2.736-3.716 1.2 0 0-1.136-1.668 1.01-4.354 0 0 .7-1.022 2.065-3.992 0 0 1.21-3.227 2.358-4.83 0 0 1.575-4.94 2.932-6.907 0 0 .016-.571-.284-.654 0 0-.632.002-1.185 1.165-.025.14-1.626 2.665-3.084 3.752 0 0-1.351 2.255-2.614 3.377 0 0-.444 1.233-1.23 2.304 0 0-1.195 3.375-2.77 3.839 0 0-1.702.527-2.062-1.948 0 0-.01-1.064 1.221-2.967 0 0 .897-1.963 1.739-2.817 0 0 2.123-4.958 3.391-6.108 0 0 2.22-3.419 3.983-5.887 0 0-.74-2.429-2.24-.631 0 0-4.6 2.763-5.47 3.611 0 0-1.744 1.41-2.1 1.949 0 0-2.048 2.301-3.157 2.562 0 0-2.753.31-.582-3.635 0 0 .67-1.171 3.395-3.409 0 0 2.488-2.51 7.736-6.965 0 0 4.24-6.804 9.512-11.295z" opacity="1" fill-opacity="1" stroke="none" stroke-width="23.937" stroke-linecap="round" stroke-linejoin="round" stroke-miterlimit="4" stroke-dashoffset="0" stroke-opacity="1"/>
</svg>
