<svg xmlns="http://www.w3.org/2000/svg" viewBox="0 0 100 100" version="1.1">
    <path d="M9.179 1.974c.488.047 1.352.873 1.352.873 2.74.735 4.878 2.54 4.878 2.54-1.537-1.337-2.271-2.94-2.271-2.94C16.345.842 20.287 6.99 20.287 6.99c7.75.869 8.151 15.301 8.151 15.301-1.87 12.16 4.678 10.758 4.678 10.758 17.907-.935 21.247.601 21.247.601 20.246-5.345 22.652-1.937 22.652-1.937 7.016-12.161 15.702-2.205 15.702-2.205 3.875 6.481.601 4.21.601 4.21 2.74 8.953-.334 5.545-.334 5.545-.801 2.406-2.806 1.537-2.806 1.537 3.608 5.145.534 14.967.534 14.967-3.742 8.887-4.276 12.695-4.276 12.695-3.074 5.412 0 8.286 0 8.286-1.67 3.407-2.406 5.612-2.406 5.612-2.071 10.223-4.877 13.096-4.877 13.096-1.27.602-1.002 1.203-1.002 1.203-4.143 1.337-6.148.267-6.148.267.535-1.47 1.805-1.87 1.805-1.87 5.278.267 5.211-13.564 5.211-13.564-3.942-13.23-8.686-20.714-8.686-20.714-8.419 10.624-23.92 6.415-23.92 6.415.467 3.875-1.003 12.828-1.003 12.828-1.47 6.148 1.47 12.563 1.47 12.563-2.94 3.006-2.138 3.74-2.138 3.74-1.403 1.604-5.88.068-5.88.068.334-.869 1.47-1.737 1.47-1.737 5.412 1.27 1.537-10.825 1.537-10.825-2.473-4.343-2.339-10.557-2.339-10.557-1.804 3.675-2.472 10.223-2.472 10.223.267 6.08-.134 9.822-.134 9.822-3.14 1.537-2.271 2.606-2.271 2.606-1.003 1.537-5.814.2-5.814.2.669-1.136 1.938-1.67 1.938-1.67 5.212 1.737 2.806-12.962 2.806-12.962-1.87-5.012-.735-6.95-.735-6.95-1.403-5.345-.734-7.35-.734-7.35.2-.734-.335-2.74-.335-2.74-15.902-1.402-16.17-19.309-16.17-19.309-4.476-6.214-1.002-27.261-1.002-27.261-1.403.066-4.878-1.136-4.878-1.136-3.608 1.804-3.875-.468-3.875-.468-2.071.134-.668-2.138-.668-2.138C4.05 13.004 6.99 11 6.99 11c4.076-1.604 6.481-4.41 6.481-4.41-1.67-.736-2.137-1.27-2.137-1.27C8.126 2.046 8.86 2.246 8.86 2.246c.033-.217.155-.288.318-.272zm77.14 30.858c-1.654.701-1.687 1.554-1.687 1.554 1.72.902 3.174 2.572 3.174 2.572.818-2.422-1.487-4.126-1.487-4.126z" opacity="1" stroke="none" stroke-width=".265" stroke-linecap="butt" stroke-linejoin="miter" stroke-opacity="1" fill-opacity="1"/>
</svg>
