<svg xmlns="http://www.w3.org/2000/svg" viewBox="0 0 90 90" version="1.1">
    <path d="M45 0A45 45 0 0 0 0 45a45 45 0 0 0 45 45 45 45 0 0 0 45-45A45 45 0 0 0 45 0zm-.598 4.113a40.891 40.891 0 0 1 29.512 11.973 40.891 40.891 0 0 1 0 57.829 40.891 40.891 0 0 1-57.828 0 40.891 40.891 0 0 1 0-57.83A40.891 40.891 0 0 1 44.402 4.114zm1.102 7.184a33.735 33.735 0 0 0-24.358 9.849 33.735 33.735 0 0 0-2.389 45.037l47.405-47.405a33.735 33.735 0 0 0-20.658-7.481zM36.144 18H53.465c.858 0 1.549.679 1.549 1.522v1.247c0 .844-.691 1.523-1.55 1.523h-.985v6.109L31.592 49.29l5.537-9.429V22.293h-.986c-.858 0-1.549-.68-1.549-1.523v-1.247c0-.843.691-1.522 1.55-1.522zm35.099 5.816L23.838 71.222a33.735 33.735 0 0 0 45.016-2.368 33.735 33.735 0 0 0 2.389-45.037zM54.987 44.131l9.956 16.953c1.366 2.325.561 5.277-1.804 6.62a4.99 4.99 0 0 1-2.112.64c-.436.123-.896.19-1.373.19h-29.07l24.403-24.403z" opacity="1" fill-opacity="1" stroke="none" stroke-width="23.937" stroke-linecap="round" stroke-linejoin="round" stroke-miterlimit="4" stroke-dashoffset="0" stroke-opacity="1"/>
</svg>
