<svg xmlns="http://www.w3.org/2000/svg" viewBox="0 0 100 100" version="1.1">
    <g fill-opacity="1" stroke-linecap="round" stroke-miterlimit="4">
        <path d="M50 0A50 50 0 0 0 0 50a50 50 0 0 0 50 50 50 50 0 0 0 50-50A50 50 0 0 0 50 0zm-.514 8.906c9.8-.046 19.44 3.601 26.93 9.842 17.848 13.18 18.593 41.03 5.173 57.537l-57.69-57.69c6.765-5.996 15.309-9.78 24.638-9.673.316-.01.633-.015.949-.016zM17.888 25.108l57.534 57.533c-18.419 15.331-50.139 8.388-61.467-12.727-8.891-14.019-5.752-32.005 3.933-44.806z" opacity="1" stroke="none" stroke-width="20.327" stroke-linejoin="round" stroke-dashoffset="0"/>
        <path d="M53.822 23.002l-4.07 1.481c-.233 2.633-3.914 5.602-8.66 8.371 8.68 8.536 17.191 17.282 25.762 25.953l-2.804-7.705-1.16-3.187a6.1 3.806 70 0 0 1.49-7.034 6.1 3.806 70 0 0-5.663-4.43l-1.16-3.187-3.735-10.262zm-24.906 15.82a192.91 192.91 0 0 1-8.536 3.408l-1.66.604c-2.255.82-3.415 3.28-2.603 5.512l6.493 17.84c.813 2.232 3.282 3.37 5.537 2.55l1.66-.605a189.36 189.36 0 0 1 8.923-2.937l4.191 11.515c.604 1.658 2.437 2.503 4.111 1.893 1.674-.609 2.536-2.435 1.932-4.093l-4.02-11.046c2.301-.583 4.63-1.096 6.844-1.473-7.637-7.703-15.184-15.52-22.872-23.168z" opacity="1" stroke="none" stroke-width="2.267" stroke-linejoin="round" stroke-dashoffset="0"/>
        <path d="M68.995 36.898l10.305-3.75c1.24-.452 2.6.183 3.052 1.422a2.376 2.376 0 0 1-1.423 3.052l-10.305 3.75a2.376 2.376 0 0 1-3.052-1.422 2.376 2.376 0 0 1 1.423-3.052z" opacity="1" stroke="none" stroke-width=".764" stroke-linejoin="round" stroke-dashoffset="0"/>
        <path d="M64.178 31.715s7.41-3.403 9.475-10.14M70.783 50.525s7.805-2.362 13.815 1.315" stroke-width="4.02" stroke-linejoin="miter" stroke-opacity="1" opacity="1"/>
    </g>
</svg>
