<svg xmlns="http://www.w3.org/2000/svg" version="1.1" viewBox="0 0 72 54" class="open">
    <g fill-opacity="1" stroke="none" stroke-width="4.5" stroke-linecap="round" stroke-linejoin="round" stroke-miterlimit="4" stroke-dashoffset="0" stroke-opacity="1">
        <path d="M18 0A18 18 0 0 0 0 18V47.692A6.294 6.294 0 0 0 6.308 54h17.384A6.294 6.294 0 0 0 30 47.692V30.308A6.294 6.294 0 0 0 23.692 24H12v-6h.004a12 12 0 0 1-.004-.186 12 12 0 0 1 6-10.375zM60 0a18 18 0 0 0-18 18V47.692A6.294 6.294 0 0 0 48.307 54h17.384A6.294 6.294 0 0 0 72 47.692V30.308A6.294 6.294 0 0 0 65.691 24H54v-6h.005a12 12 0 0 1-.004-.186 12 12 0 0 1 6-10.375z" opacity="1"/>
    </g>
</svg>
