<svg xmlns="http://www.w3.org/2000/svg" viewBox="0 0 100 100" version="1.1">
    <g transform="matrix(1.0993 0 0 1.0993 -5.47 -5.585)">
        <path d="M40.97 36.103c2.67.918 14.91 4.545 16.944 10.322 5.294.336 5.237 8.011 6.037 7.357.908-4.56 2.562-8.166 5.848-6.414.116-1.23.43-5.023.332-6.39 0 0-4.108-.193-5.99-.22-4.107-.222-6.263-.562-10.328-1.176z" opacity="1" fill-opacity="1" stroke="none" stroke-width=".265" stroke-linecap="butt" stroke-linejoin="miter" stroke-opacity="1"/>
        <path d="M31.799 79.277c-8.916 4.342-17.51 9.38-24.17 16.893 11.076-.115 22.984.228 33.545-.17-3.286-4.493-4.794-10.279-5.897-15.365-1.29-.472-1.947-2.996-3.478-1.358zm38.453 2.471c-5.047 9.461-16.675 12.32-26.375 14.422 16.084-.164 33.291.327 48.676-.244-5.5-6.91-14.712-10.873-22.301-14.178zM22.918 32.555c-1.841 4.243-2.435 8.214-2.164 11.558.136 1.672.228 5.797 1.25 9.39 1.021 3.593 2.972 6.654 3.652 8.58-4.95-11.458 8.41-22.114 15.315-25.98-4.522-1.44-11.89-3.646-15.836-6.345z" opacity="1" stroke="none" stroke-width=".265" stroke-linecap="butt" stroke-linejoin="miter" stroke-opacity="1"/>
        <path d="M33.348 77.457s-1.6-1.067 3.335 2.934c0 0 3.068 4.802 9.737 3.735 0 0 3.469.934 9.471-5.736 0 0 7.948-8.472 8.004-16.54 0 0 1.6 5.602 5.202-1.467 0 0 1.598-3.394 1.692-6.27 0 0 1.415-4.528-.99-6.745 0 0-4.34-2.688-5.848 6.414 0 0-.755-6.697-6.037-7.357 0 0 0-6.225-17.167-9.81 0 0-20.716 8.826-15.091 25.467 0 0-2.58-4.567-3.713-8.903 0 0-3.668-1.334-2.201 5.67 0 0 2.134 3.601 3.668 7.47 0 0 3.935 4.401 3.735-.267 0 0-.6 5.335 6.203 11.405z" fill="none" stroke-width="1" stroke-linecap="round" stroke-linejoin="round" stroke-miterlimit="4" stroke-opacity="1"/>
        <path d="M36.805 83.108s1.612 7.488 5.28 11.556c0 0 18.141-.933 25.678-12.205 0 0-6.713-2.284-7.047-7.953 0 0-2.01 5.662-7.608 9.144-4.734 2.944-9.217 4.5-16.303-.542z" fill="none" stroke-width="1" stroke-linecap="round" stroke-linejoin="round" stroke-miterlimit="4" stroke-opacity="1"/>
        <path d="M44.72 50.512c.008.016.025.026.053.031a.394.394 0 0 0 .105.003c.086-.007.206-.03.355-.069.29-.074.702-.206 1.2-.373.927-.311 2.257-.785 3.695-1.22.344-.104.7-.208 1.06-.308 1.15-.318 2.134-.526 3.094-.634 2.02-.185 3.22.423 3.343.269.171-.216-1.02-1.297-3.406-1.18-1.03.03-2.121.21-3.31.54-.376.103-.741.217-1.092.333a23.367 23.367 0 0 0-3.661 1.562c-.473.255-.84.483-1.088.663-.125.092-.219.171-.278.235a.386.386 0 0 0-.063.085c-.012.026-.015.046-.007.063zM27.179 51.745c-.048-.18 1.093-.643 2.755-1.144a9.52 9.52 0 0 1 1.676-.143c2.743.01 4.52 1.232 4.406 1.454-.11.215-1.962-.574-4.372-.585a15.251 15.251 0 0 0-1.551.074c-1.651.37-2.867.524-2.914.344zM35.795 56.423c.04.07-.525.484-1.522 1.128-1.648.507-3.659.317-6.36-.632l.391-.325a174.04 174.04 0 0 1 2.124-1.741c1.71-.772 3.34-.655 4.384-.344 1.064.316 1.528.786 1.502.83-.04.066-.595-.251-1.59-.438a6.47 6.47 0 0 0-3.969.522c-.684.4-1.385.796-2.146 1.223l-.4.224c2.603.654 4.292.73 5.896.288 1.012-.52 1.65-.805 1.69-.735zM49.13 54.478c.01-.087.937-.064 2.4.042 1.192-.021 2.928-.256 4.192-1.324.13.044-.572-.198-.443-.154-.784-.271-1.505-.524-2.206-.782-.837-.209-1.582-.24-2.24-.094-1.535.318-2.18 1.388-2.257 1.333.093.065.23-1.241 2.143-1.79.744-.204 1.605-.21 2.536.004.742.369 1.507.762 2.33 1.188l.465.241c-1.442 1.412-3.286 1.803-4.54 1.823-1.478-.22-2.39-.4-2.38-.487z" stroke="none" stroke-width=".265" stroke-linecap="butt" stroke-linejoin="miter" stroke-opacity="1"/>
        <ellipse ry=".634" rx=".809" cy="55.781" cx="33.523" opacity="1" fill="none" fill-opacity="1" stroke="none" stroke-width="1" stroke-linecap="round" stroke-linejoin="round" stroke-miterlimit="4" stroke-dashoffset="0"/>
        <ellipse ry=".942" rx=".95" cy="56.039" cx="33.665" opacity="1" fill="none" fill-opacity="1" stroke="none" stroke-width="1" stroke-linecap="round" stroke-linejoin="round" stroke-miterlimit="4" stroke-dashoffset="0"/>
        <ellipse ry="1.436" rx="1.535" cy="56.046" cx="33.132" opacity="1" fill-opacity="1" stroke="none" stroke-width="1.473" stroke-linecap="round" stroke-linejoin="round" stroke-miterlimit="4" stroke-dashoffset="0"/>
        <ellipse cx="51.795" cy="53.299" rx="1.545" ry="1.403" opacity="1" fill-opacity="1" stroke="none" stroke-width=".96" stroke-linecap="round" stroke-linejoin="round" stroke-miterlimit="4" stroke-dashoffset="0"/>
        <path d="M56.31 65.304c.188-.192 1.364.832 1.655 2.746.293 1.925-.288 3.336-.402 3.324-.201-.023-.105-1.545-.325-3.22-.22-1.676-1.07-2.705-.928-2.85zM34.044 70.476c-.019-.014-.056 0-.109.041a.984.984 0 0 0-.17.18 2.285 2.285 0 0 0-.361.757 2.82 2.82 0 0 0-.097.821c.03 1.179.67 1.847.735 1.81.1-.056-.293-.842-.321-1.821a3.453 3.453 0 0 1 .053-.725c.054-.305.133-.544.197-.73.031-.092.058-.17.073-.223.016-.061.02-.098 0-.11z" stroke="none" stroke-width=".265" stroke-linecap="butt" stroke-linejoin="miter" stroke-opacity="1"/>
        <path d="M35.286 72.16s2.681-.033 6.732-1.073c0 0 2.135-.5 4.736-.4 0 0 2.641.303 6.278-.967 0 0-5.919 4.593-17.746 2.44z" stroke="none" stroke-width=".265" stroke-linecap="round" stroke-linejoin="round" stroke-miterlimit="4" stroke-opacity="1"/>
        <path d="M35.286 72.16s9.703 3.55 17.804-2.207c0 0-5.71 9.032-17.804 2.207zM39.427 54.065c.01-.011.033-.01.07.003a.61.61 0 0 1 .133.076c.107.077.244.205.39.397.32.418.627 1.053.775 1.95.175 1.062.16 2.265-.124 3.613-.758 3.597-2.665 5.843-2.66 5.846-.16-.084 1.306-2.678 2.02-5.982.277-1.287.329-2.393.226-3.405-.085-.847-.277-1.416-.496-1.86-.101-.204-.182-.335-.25-.447a1.719 1.719 0 0 1-.072-.125c-.017-.034-.022-.055-.012-.066zM38.46 66.397c-.04-.112.419-.38 1.12-.67.264-.05.553-.065.857-.031 1.328.148 1.912.994 1.843 1.079-.1.123-.865-.401-1.87-.524a3.366 3.366 0 0 0-.704-.013c-.687.197-1.206.271-1.246.16zM44.214 66.586c-.06-.073.332-.496.94-1.03.205-.116.437-.206.69-.261 1.343-.29 2.053.49 2.025.537-.063.102-.91-.344-1.908-.135a2.503 2.503 0 0 0-.582.197c-.618.468-1.106.765-1.165.692zM47.869 63.497c.028-.026-.52-.146-1.127-.537a2.648 2.648 0 0 1-.58-.531c-.75-.912-.85-1.858-.845-1.86.097-.052.51.816 1.15 1.611.155.194.314.35.486.478.534.41.976.782.916.84z" stroke="none" stroke-width=".265" stroke-linecap="butt" stroke-linejoin="miter" stroke-opacity="1"/>
        <path d="M63.228 69.853s1.267-1.133 1.734-4.402c0 0 2.668 1.601 5.402-3.735 0 0 1.934 1.134.467 4.736 0 0 4.802 3.001 2.401 6.47 0 0 2.935 1.267 1.468 5.202 0 0 3.134 1.6 2.267 5.002 0 0-6.736-3.535-10.004-4.135-.067-.467-1.2-1.668-.134-3.068 0 0-3.534-1.668-2.2-5.27 0 0-.8-.133-1.401-.8z" stroke-width=".265" stroke-linecap="butt" stroke-linejoin="miter" stroke-opacity="1"/>
        <path d="M19.442 84.993s.233-2.667 1.967-3.268c0 0-2.467-3.268.867-4.202 0 0-2.334-4.735 1.534-5.269 0 0-1.7-1.133-.566-4.201 0 0 2 1.467 3.201 1.534 0 0 1.167 5.135 4.168 7.336 0 0-.366 2.068-2.167 2.935-6.47 3.535-9.004 5.135-9.004 5.135z" stroke-width=".265" stroke-linecap="round" stroke-linejoin="round" stroke-miterlimit="4" stroke-opacity="1"/>
        <path d="M14.549 8.753s-1.332 9.196 5.647 16.553c3.952 2.495 8.586 5.176 14.25 7.326 5.666 2.15 12.364 3.767 16.671 4.89 8.615 2.248 11.443 1.763 19.214 2.24 0 0 8.622-.92 17.017-11.768 0 0-11.855 4.08-28.715.142-16.615-3.88-39.462-10.894-44.084-19.383z" opacity="1" stroke="none" stroke-width=".265" stroke-linecap="butt" stroke-linejoin="miter" stroke-opacity="1"/>
        <path d="M86.87 27.787s6.792-6.64-31.691-16.356c0 0-39.595-10.254-40.35-2.274 0 0 .683 4 17.359 11.404 14.253 6.33 38.837 12.81 54.683 7.226z" fill="none" stroke-width="1" stroke-linecap="butt" stroke-linejoin="miter" stroke-miterlimit="4" stroke-opacity="1"/>
        <path d="M35.549 20.432s10.204 4.268 23.21 6.803c0 0-4.535-12.673-23.21-6.803z" stroke-width=".265" stroke-linecap="butt" stroke-linejoin="miter" stroke-opacity="1"/>
        <path d="M68.525 50.387c.015-.014.038-.02.07-.016.03.003.066.014.108.034.084.04.188.112.3.223.241.238.502.627.675 1.173a5.2 5.2 0 0 1 .202 1.916c-.155 2.153-1.248 3.46-1.355 3.413-.204-.087.411-1.642.56-3.473a6.264 6.264 0 0 0-.076-1.687 4.777 4.777 0 0 0-.334-1.11c-.054-.124-.108-.242-.135-.312a.467.467 0 0 1-.029-.098c-.004-.029 0-.05.014-.063zM66.262 53.122c.02-.01.045-.011.076-.002.028.009.06.025.094.05.068.051.146.134.224.25.157.233.313.597.365 1.065.038.383.004.801-.118 1.23-.458 1.608-1.63 2.168-1.726 2.076-.161-.156.6-1.089.957-2.298.104-.35.152-.669.16-.977a5.449 5.449 0 0 0-.052-.934 3.016 3.016 0 0 1-.03-.303c0-.04.003-.072.01-.098.007-.029.02-.048.04-.059zM22.166 58.168c.102-.045.467.553.875 1.412.068.177.134.37.19.574.359 1.3.019 2.318-.17 2.259-.127-.041.016-.959-.298-2.114a24.477 24.477 0 0 0-.158-.55c-.35-.865-.541-1.536-.44-1.58z" stroke="none" stroke-width=".265" stroke-linecap="butt" stroke-linejoin="miter" stroke-opacity="1"/>
    </g>
</svg>
