<svg xmlns="http://www.w3.org/2000/svg" viewBox="0 0 100 100" version="1.1">
    <path d="M38.094 53.935c.26.01.463.61.792 1.543.23.653.963 2.593 1.2 4.209.232 1.358.209 2.96-.364 4.571A8.38 8.38 0 0 1 38.107 67c-.043-.354-.07-.642-.087-.863a.426.426 0 0 0 .083.064c.179.134.455.227.758.314 2.754.784 5.367-.14 5.535.352.013.038-1.708 2.43-5.95 1.982a4.538 4.538 0 0 1-1.579-.473 2.98 2.98 0 0 1-.441-.289c-.076-.27-.164-.61-.26-1.022.472-.72.831-1.576 1.085-2.558.395-1.533.487-3.197.466-4.603-.036-1.569-.299-3.13-.235-4.24.065-1.128.353-1.738.612-1.728z" opacity="1" stroke="none" stroke-width=".265" stroke-linecap="butt" stroke-linejoin="miter" stroke-opacity="1" fill-opacity="1"/>
    <path d="M39.569 34.103c2.935 1.009 16.39 4.997 18.626 11.347 5.82.37 5.757 8.807 6.636 8.088.999-5.013 2.817-8.977 6.428-7.051.128-1.353.474-5.522.366-7.025 0 0-4.516-.212-6.584-.241-4.515-.245-6.886-.618-11.354-1.293zM28.064 82.028c-9.801 4.772-17.827 9.848-25.148 18.107 12.177-.127 25.266.25 36.876-.187-3.612-4.94-5.435-10.373-6.647-15.965-1.418-.52-3.397-3.756-5.08-1.955zm43.694 2.253c-5.548 10.4-18.33 13.544-28.994 15.854 17.681-.18 36.597.359 53.51-.269C90.225 92.27 80.1 87.914 71.757 84.281zM19.724 30.203c-2.024 4.664-2.677 9.03-2.379 12.705.15 1.838.25 6.373 1.374 10.323 1.123 3.95 3.268 7.315 4.014 9.431-5.44-12.594 9.245-24.309 16.836-28.56-4.971-1.582-13.07-4.007-17.408-6.974z" opacity="1" fill-opacity="1" stroke="none" stroke-width=".291" stroke-linecap="butt" stroke-linejoin="miter" stroke-opacity="1"/>
    <path d="M31.19 79.563s-1.76-1.173 3.665 3.226c0 0 3.373 5.28 10.705 4.106 0 0 3.812 1.027 10.411-6.305 0 0 8.737-9.314 8.798-18.183 0 0 1.76 6.158 5.72-1.613 0 0 1.755-3.73 1.86-6.893 0 0 1.555-4.977-1.09-7.414 0 0-4.77-2.955-6.428 7.05 0 0-.83-7.361-6.636-8.087 0 0-.066-6.455-18.937-10.395 0 0-22.708 9.313-16.525 27.607 0 0-2.835-5.021-4.081-9.787 0 0-4.033-1.466-2.42 6.232 0 0 2.347 3.96 4.033 8.212 0 0 4.326 4.839 4.106-.293 0 0-.66 5.865 6.818 12.537z" fill="none" stroke-width="2" stroke-linecap="round" stroke-linejoin="round" stroke-miterlimit="4" stroke-opacity="1" opacity="1"/>
    <path d="M44.167 47.689c.007.01.02.017.039.02.017.002.039.001.066-.003.053-.007.126-.026.217-.054.18-.055.433-.143.755-.243.673-.21 1.55-.441 2.704-.557a13.679 13.679 0 0 1 3.13.046c3.804.479 6.72 2.165 6.854 1.933.065-.111-2.486-2.366-6.734-2.89a11.782 11.782 0 0 0-3.366.053c-1.218.205-2.156.583-2.794.943-.312.176-.54.341-.687.476a.994.994 0 0 0-.155.17.23.23 0 0 0-.031.062c-.005.018-.004.033.002.044zM25.259 53.516c-.022-.017-.028-.051-.02-.102a.754.754 0 0 1 .06-.186c.068-.15.187-.348.36-.581.345-.467.89-1.056 1.64-1.643.468-.367 1.005-.721 1.608-1.035 2.651-1.38 4.999-1.133 5.008-.865.01.27-2.2.51-4.554 1.736-.558.29-1.066.596-1.527.902-.756.503-1.32.948-1.774 1.297-.217.167-.399.304-.53.387a.912.912 0 0 1-.169.09c-.048.016-.081.018-.102 0z" opacity="1" fill-opacity="1" stroke="none" stroke-width=".291" stroke-linecap="butt" stroke-linejoin="miter" stroke-opacity="1"/>
    <ellipse cx="31.382" cy="55.735" rx=".889" ry=".697" opacity="1" fill="none" fill-opacity="1" stroke="none" stroke-width="1.099" stroke-linecap="round" stroke-linejoin="round" stroke-miterlimit="4" stroke-dashoffset="0"/>
    <ellipse cx="31.538" cy="56.019" rx="1.045" ry="1.036" opacity="1" fill="none" fill-opacity="1" stroke="none" stroke-width="1.099" stroke-linecap="round" stroke-linejoin="round" stroke-miterlimit="4" stroke-dashoffset="0"/>
    <path d="M64.036 71.205s1.393-1.247 1.907-4.84c0 0 2.932 1.76 5.938-4.105 0 0 2.127 1.246.514 5.206 0 0 5.279 3.299 2.639 7.112 0 0 3.226 1.393 1.613 5.718 0 0 3.446 1.76 2.493 5.5 0 0-7.405-3.887-10.998-4.546-.073-.514-1.32-1.833-.147-3.373 0 0-3.885-1.833-2.42-5.792 0 0-.879-.147-1.539-.88z" stroke-width=".291" stroke-linecap="butt" stroke-linejoin="miter" stroke-opacity="1" opacity="1" fill-opacity="1"/>
    <path d="M15.902 87.848s.257-2.933 2.163-3.592c0 0-2.712-3.593.954-4.62 0 0-2.567-5.205 1.686-5.792 0 0-1.87-1.246-.623-4.619 0 0 2.2 1.613 3.519 1.687 0 0 1.283 5.645 4.582 8.065 0 0-.403 2.273-2.383 3.226-7.111 3.886-9.898 5.645-9.898 5.645z" stroke-width=".291" stroke-linecap="round" stroke-linejoin="round" stroke-miterlimit="4" stroke-opacity="1" opacity="1" fill-opacity="1"/>
    <path d="M9.869 4.551s-.81 9.595 6.863 17.683c4.344 2.743 9.438 5.69 15.665 8.053 6.228 2.363 13.59 4.142 18.326 5.377 9.47 2.47 12.58 1.937 21.122 2.46 0 0 9.9-.823 19.128-12.748 0 0-13.454 4.298-31.988-.031C40.72 21.079 14.95 13.883 9.869 4.55z" opacity="1" stroke="none" stroke-width=".291" stroke-linecap="butt" stroke-linejoin="miter" stroke-opacity="1" fill-opacity="1"/>
    <path d="M90.027 24.96s7.466-7.299-34.84-17.978c0 0-43.525-11.273-44.355-2.501 0 0 .75 4.398 19.082 12.537 15.669 6.958 42.693 14.081 60.113 7.943z" fill="none" stroke-width="2" stroke-linecap="butt" stroke-linejoin="miter" stroke-miterlimit="4" stroke-opacity="1" opacity="1"/>
    <path d="M33.609 16.876s11.218 4.692 25.515 7.478c0 0-4.986-13.93-25.515-7.478z" stroke-width=".291" stroke-linecap="butt" stroke-linejoin="miter" stroke-opacity="1" opacity="1" fill-opacity="1"/>
    <path d="M68.13 51.052a.146.146 0 0 1 .024-.062.218.218 0 0 1 .046-.05.465.465 0 0 1 .155-.076 1.23 1.23 0 0 1 .528-.018c.392.063.962.315 1.356.943.436.77.508 1.729.244 2.643a7.208 7.208 0 0 1-.06.223c-.747 2.602-2.462 3.823-2.69 3.673-.35-.232.648-1.987 1.226-4.086l.05-.184c.158-.756.263-1.272.1-1.703-.083-.322-.333-.602-.53-.786-.12-.108-.23-.196-.31-.275a.658.658 0 0 1-.104-.12.25.25 0 0 1-.028-.057.15.15 0 0 1-.007-.065z" stroke="none" stroke-width=".265" stroke-linecap="butt" stroke-linejoin="miter" stroke-opacity="1" opacity="1" fill-opacity="1"/>
    <path d="M69.036 85.968s-5.52-2.151-8.326-7.764" fill="none" stroke-width="1.765" stroke-linecap="butt" stroke-linejoin="miter" stroke-miterlimit="4" stroke-opacity="1" opacity="1"/>
    <path d="M33.796 75.475a.124.124 0 0 1 .07-.055.4.4 0 0 1 .12-.02c.094-.006.224.007.384.032.296.046.762.148 1.285.253 1.07.214 2.505.459 4.243.44a16.646 16.646 0 0 0 4.21-.591c.577-.157 1.134-.34 1.667-.544 4.498-1.705 7.331-4.561 7.693-4.213.185.179-1.756 3.874-6.945 6.072-.596.25-1.225.47-1.881.648a14.299 14.299 0 0 1-4.809.475c-1.954-.148-3.515-.688-4.556-1.224-.532-.273-.923-.542-1.173-.768a1.454 1.454 0 0 1-.266-.3.38.38 0 0 1-.05-.115.128.128 0 0 1 .008-.09z" opacity="1" fill-opacity="1" stroke="none" stroke-width=".26" stroke-linecap="butt" stroke-linejoin="miter" stroke-opacity="1"/>
    <path d="M32.13 53.83a2.563 2.2 0 0 0-2.563 2.2 2.563 2.2 0 0 0 2.563 2.199 2.563 2.2 0 0 0 2.563-2.2 2.563 2.2 0 0 0-2.563-2.199zm0 .463a2.024 1.736 0 0 1 2.024 1.737 2.024 1.736 0 0 1-2.024 1.736 2.024 1.736 0 0 1-2.023-1.736 2.024 1.736 0 0 1 2.023-1.737z" opacity="1" fill="#fff" fill-opacity="1" stroke="none" stroke-width="6.168" stroke-linecap="round" stroke-linejoin="round" stroke-miterlimit="4" stroke-dashoffset="0" stroke-opacity="1"/>
    <ellipse cx="32.775" cy="55.778" rx="1.025" ry=".923" opacity="1" fill="#fff" fill-opacity="1" stroke="none" stroke-width="1.775" stroke-linecap="round" stroke-linejoin="round" stroke-miterlimit="4" stroke-dashoffset="0" stroke-opacity="1"/>
    <path d="M50.916 50.755a2.563 2.2 0 0 0-2.563 2.199 2.563 2.2 0 0 0 2.563 2.2 2.563 2.2 0 0 0 2.563-2.2 2.563 2.2 0 0 0-2.563-2.2zm0 .463a2.024 1.736 0 0 1 2.023 1.736 2.024 1.736 0 0 1-2.023 1.736 2.024 1.736 0 0 1-2.024-1.736 2.024 1.736 0 0 1 2.024-1.736z" opacity="1" fill="#fff" fill-opacity="1" stroke="none" stroke-width="1.632" stroke-linecap="round" stroke-linejoin="round" stroke-miterlimit="4" stroke-dashoffset="0" stroke-opacity="1"/>
    <ellipse ry=".893" rx=".992" cy="52.739" cx="51.461" opacity="1" fill="#fff" fill-opacity="1" stroke="none" stroke-width="1.717" stroke-linecap="round" stroke-linejoin="round" stroke-miterlimit="4" stroke-dashoffset="0" stroke-opacity="1"/>
</svg>
