<svg xmlns="http://www.w3.org/2000/svg" viewBox="0 0 100 81" version="1.1">
    <g fill-opacity="1">
        <path d="M38.396 48.728l-12.723 7.631v24.392l23.475-14.082V55.177z" stroke-width=".265"/>
        <path stroke-width=".284" d="M23.64 56.36L.165 42.276v24.391L23.64 80.75z"/>
        <path d="M24.5 27.07L1.18 41.059 24.656 55.14l12.216-7.327-12.373-7.422z" stroke-width=".265"/>
        <path stroke-width=".284" d="M76.69 56.36l23.475-14.083v24.391L76.69 80.75z"/>
        <path d="M61.933 48.728l-10.752 6.45v11.49l23.475 14.083V56.359zM75.83 27.07v13.321l-12.372 7.421 12.215 7.328 23.475-14.082z" stroke-width=".265"/>
        <path stroke-width=".281" d="M51.156 29.233L74.35 15.311v24.114L51.156 53.347zM49.148 29.233L25.954 15.311v24.114l23.194 13.922z"/>
        <path d="M50.152.183L26.958 14.105l23.194 13.923 23.194-13.922v-.001z" stroke-width=".261"/>
    </g>
</svg>
