<svg xmlns="http://www.w3.org/2000/svg" version="1.1" viewBox="0 0 200 130"><g transform="translate(0 30)" stroke="none"><g stroke-width=".265" stroke-linecap="butt" stroke-linejoin="miter" stroke-opacity="1"><path d="M199.72 9.046l-1.195 9.45c-4.105 2.21-10.33 2.513-10.33 2.513h-70.358l1.212-8.325h67.703s5.368-.052 12.968-3.638zM134.2 53.798h-21.243l4.53-30.11h30.747s-2.233 17.224-14.034 30.11zM197.8 20.945l-1.148 9.25c-7.655 1.914-10.143 1.723-10.143 1.723h-37.446c1.276-4.593 1.978-8.23 1.978-8.23h34.193s5.805-.127 12.567-2.743zM181.204 42.854h-36.899c3.158-5.593 3.79-8.3 3.79-8.3h36.266zM166.228 45.29h-23.411c-2.526 4.691-5.82 8.435-5.82 8.435h25.622zM.364 9.046l1.195 9.45c4.105 2.21 10.33 2.513 10.33 2.513h70.358l-1.212-8.325H13.332S7.964 12.632.364 9.046zM65.884 53.798h21.243l-4.53-30.11H51.85s2.233 17.224 14.034 30.11zM2.283 20.945l1.149 9.25c7.655 1.914 10.143 1.723 10.143 1.723H51.02c-1.276-4.593-1.978-8.23-1.978-8.23H14.85s-5.805-.127-12.567-2.743zM18.88 42.854H55.78c-3.158-5.593-3.79-8.3-3.79-8.3H15.724zM33.856 45.29h23.411c2.526 4.691 5.82 8.435 5.82 8.435H37.464zM90.086 56.251h19.802l3.473 16.6H86.567zM116.474 12.677H83.726l6.044 41.048h20.66zM103.528 10.286h12.923V4.264zM91.958 6.768s-2.932.474-2.662 3.428c0 0 .587-1.15 4.06-.992 0 0 1.376 2.21 5.3.473 0 0 1.128-.699 4.962-1.443 0 0 3.676-1.466 1.692-5.368 0 0-1.602-3.293-5.797-1.443 0 0-1.714-2.684-5.819.676 0 0-3.766 2.459-1.736 4.669z"/></g><flowRoot transform="scale(.26458)" style="line-height:1.25" xml:space="preserve" font-style="normal" font-weight="400" font-size="40" font-family="sans-serif" letter-spacing="0" word-spacing="0" fill-opacity="1"><flowRegion><path d="M151.429 61.524h414.286v62.143H151.429z"/></flowRegion><flowPara/></flowRoot><path d="M6.147 8.327s95.415-32.34 187.89 0" fill="none" stroke-width=".265" stroke-linecap="butt" stroke-linejoin="miter" stroke-opacity="1"/><g style="line-height:1.25;-inkscape-font-specification:Narkisim" aria-label="SACRED VALLEY" font-style="normal" font-variant="normal" font-weight="400" font-stretch="normal" font-size="21.872" font-family="Narkisim" letter-spacing="2.381" word-spacing="0" fill-opacity="1" stroke-width=".265" writing-mode="lr-tb" text-anchor="start"><path style="-inkscape-font-specification:'Narkisim, Normal';font-variant-ligatures:normal;font-variant-caps:normal;font-variant-numeric:normal;font-feature-settings:normal;text-align:start" d="M15.103-2.585q.592 2.019-.626 3.634-1.103 1.437-3.183 2.047-1.343.394-2.901.128L7.575.436q.929.662 1.58.872.859.271 1.781 0 1.015-.297 1.562-1.125.59-.874.298-1.868-.304-1.036-1.99-1.698L7.68-4.558q-1.752-.889-2.215-2.467-.544-1.855.518-3.357.973-1.388 2.869-1.944 1.27-.373 2.708-.215l.754 2.572q-1.079-.53-1.477-.635-.747-.193-1.597.056-.882.26-1.305.94-.448.71-.196 1.57.289.985 1.972 1.637l3.136 1.206q1.767.94 2.257 2.61zM34.727-3.042l-3.547.823q-.385-1.139-1.09-2.192-.237-.362-1.51-2.018l-5.264 1.222q-.255 1.879-.292 2.425-.11 1.373.103 2.431l-3.61.838q.793-1.5 1.682-5.51l2.474-11.121 7.32 9.199q1.849 2.345 3.734 3.903zM27.333-8.07l-2.821-3.94-.84 4.79zM49.509-9.194l.327 2.48q-2.353 1.574-4.414 1.945-3.258.587-5.677-1.093-2.42-1.691-3.005-4.939-.629-3.49 1.193-6.085 1.833-2.599 5.312-3.225 1.776-.32 3.902-.085l.456 2.533q-2.407-.955-4.31-.612-2.46.443-3.576 2.435-1.045 1.848-.591 4.37.445 2.47 1.982 3.832 1.68 1.5 4.077 1.067 2.175-.391 4.324-2.623zM65.566-8.002l-2.699.368q-2.983-2.04-6.637-5.993l.282 2.074q.345 2.529 1.16 4.627l-3.313.452q.288-1.688-.095-4.492l-.855-6.276q-.259-1.894-1.081-4.131l1.64-.224q3.132-.427 4.762-.013 2.547.655 2.912 3.332.35 2.571-2.378 4.215 2.578 3.098 6.302 6.06zm-6.352-9.826q-.368-2.699-3.896-2.487l.822 6.032q1.47-.363 2.288-1.164.979-.963.786-2.381zM77.93-12.183l-.959 3.065-7.93.766q.359-1.73.039-5.047l-.506-5.23q-.238-2.466-.978-4.691l8.238-.796-.915 2.524q-1.597-.65-3.287-.487-.213.02-1.06.135l.469 4.858 4.9-.473-1.159 2.547q-1.449-.557-3.584-.448l.503 5.209q2.66-.45 3.256-.615 1.602-.412 2.974-1.317zM93.17-17.545q.18 3.348-1.876 5.48-1.996 2.065-5.363 2.29l-3.87.24q.43-1.766.274-4.646l-.292-5.417q-.141-2.624-.79-4.952l1.535-.083q9.971-.537 10.382 7.088zm-2.465.111q-.15-2.794-1.975-4.31-1.758-1.457-4.564-1.327l.633 11.752q6.19-.836 5.906-6.115zM120.596-25.1q-1.348 1.935-2.47 4.654l-4.247 10.23-1.868-.044-3.674-10.919q-.92-2.724-2.282-4.262l4.26.1q-.153.573-.16.861-.029 1.239 1.426 5.696l1.581 4.545q1.004-2.252 2.007-4.493 1.71-4.094 1.744-5.546.008-.32-.096-.91zM138.614-8.662l-3.63-.3q-.018-1.201-.368-2.42-.116-.416-.822-2.382l-5.386-.444q-.816 1.712-1.018 2.22-.523 1.275-.644 2.347l-3.693-.304q1.212-1.186 3.283-4.734l5.751-9.835 4.162 10.995q1.045 2.798 2.365 4.857zm-5.506-7.045l-1.485-4.612-2.262 4.304zM151.685-9.86l-1.64 2.76-7.597-1.043q.742-1.634 1.122-4.406l.875-6.37q.338-2.464.048-4.121l3.312.454q-.773 1.78-1.068 3.929l-1.274 9.279q3.216.215 6.222-.483zM164.595-7.532l-1.77 2.679-7.539-1.406q.82-1.596 1.332-4.347l1.18-6.32q.455-2.446.245-4.115l3.286.613q-.857 1.741-1.254 3.872l-1.717 9.208q3.2.369 6.237-.184zM177.869-4.438l-1.905 2.585-7.748-1.858q.903-1.519 1.68-4.76l1.226-5.109q.578-2.41.602-4.754l8.048 1.931-1.687 2.088q-1.298-1.135-2.95-1.53-.207-.05-1.045-.219l-1.139 4.746 4.788 1.149-1.926 2.03q-1.188-.998-3.243-1.59l-1.22 5.089q2.662.44 3.278.479 1.65.132 3.24-.277zM196.006-11.693q-1.727.917-3.805 2.955-1.67 1.727-3.349 3.44l-.905 2.995q-.56 1.85-.574 3.71l-3.21-.97q1.075-1.75 1.582-3.427l.9-2.975q-.459-2.325-.927-4.653-.648-2.986-1.489-4.634l3.425 1.035q-.205.752-.18 1.15 0 .145.202 1.177l.766 4.147 2.416-2.237q1.436-1.43 1.907-2.693z"/></g><text y="93.586" x="55.859" style="line-height:1.25;-inkscape-font-specification:Narkisim" xml:space="preserve" font-style="normal" font-variant="normal" font-weight="400" font-stretch="normal" font-size="15.875" font-family="Narkisim" letter-spacing="0" word-spacing="0" fill-opacity="1" stroke-width=".265"><tspan y="93.586" x="55.859" font-size="21.872" stroke-width=".265">SALT CO.</tspan></text></g></svg>