<svg xmlns="http://www.w3.org/2000/svg" viewBox="0 0 100 100" version="1.1">
    <path d="M50 0A50 50 0 0 0 0 50a50 50 0 0 0 50 50 50 50 0 0 0 50-50A50 50 0 0 0 50 0zM33.996 20.99a7.86 7.86 0 0 1 4.14 1.01c2.378 1.434 3.813 3.475 4.691 5.197 3.036 5.69 2.744 9.97 2.2 10.144-.83.266-2.42-3.606-5.649-8-1-1.304-2.145-2.746-3.439-3.325a3.616 3.616 0 0 0-2.03-.366 2.716 2.716 0 0 0-.336.063c-.914.17-1.88.803-2.82 1.496-2.386 1.81-4.523 4.673-5.92 6.432-1.788 2.545-3.151 3.978-3.684 3.7-.534-.277-.141-2.219.95-5.211.949-2.263 2.707-5.614 5.76-8.374 1.155-1.063 2.698-2.063 4.644-2.57a7.97 7.97 0 0 1 1.493-.196zm31.924.188a7.727 7.727 0 0 1 1.457.19c1.904.494 3.424 1.48 4.57 2.528 3.028 2.722 4.798 6.052 5.767 8.295 1.12 2.974 1.55 4.895 1.06 5.15-.49.255-1.813-1.198-3.572-3.76-1.382-1.781-3.5-4.663-5.916-6.512-.948-.707-1.937-1.355-2.893-1.538a2.952 2.952 0 0 0-.357-.067 3.784 3.784 0 0 0-2.141.39c-1.338.613-2.494 2.08-3.49 3.4-3.22 4.445-4.747 8.331-5.51 8.087-.477-.152-.706-4.416 2.34-10.057.884-1.705 2.306-3.723 4.64-5.122a7.69 7.69 0 0 1 4.045-.984zm-44.4 33.974a2.675 2.675 0 0 1 2.552 1.992c3.299 11.804 13.742 19.86 25.608 19.866 11.86-.012 22.295-8.067 25.591-19.866a2.675 2.675 0 0 1 5.153 1.44c-.106.38-.22.757-.339 1.13 2.962 1.832 4.468 4.26 4.491 4.296 1.738 2.556 2.403 4.858 2.586 6.55.184 1.7-.148 2.948-.148 2.948L87 73.56l-.02.051c-1.288 3.61-4.902 6.234-9.128 5.516-1.583-.269-2.518-1.184-3.42-1.953-.902-.77-1.592-1.499-1.592-1.499l-.04-.04-.036-.045c-.67-.808-1.229-1.344-1.668-1.698-5.73 5.3-13.29 8.458-21.416 8.465a2.675 2.675 0 0 1-.004 0c-14.291-.006-26.837-9.747-30.756-23.773a2.675 2.675 0 0 1 2.6-3.432zm57.303 7.906a32.885 32.885 0 0 1-1.75 3.413c.885.798 1.718 1.864 2.268 2.46.74.8 1.147 1.529 1.547 2.037.217.276.568.988.667 1.169.04.094.074.268-.132.12a16.055 16.055 0 0 1-.593-.548c-.574-.55-1.308-1.276-1.883-1.827-.658-.63-1.542-1.52-2.53-2.346a32.775 32.775 0 0 1-2.886 3.851 16.09 16.09 0 0 1 1.856 1.912c.029.03.581.608 1.304 1.225.743.633 1.826 1.183 1.745 1.17 2.589.44 4.402-.94 5.232-3.192.007-.022.154-.432.031-1.566-.126-1.164-.573-2.883-2.014-4.993l-.02-.03-.017-.026s-.983-1.522-2.825-2.829z" opacity="1" fill-opacity="1" stroke="none" stroke-width="18.594" stroke-linecap="round" stroke-linejoin="round" stroke-miterlimit="4" stroke-dashoffset="0" stroke-opacity="1"/>
</svg>
